<svg xmlns="http://www.w3.org/2000/svg" viewBox="-65.761044 -33.488244 131.522088 125.765688"><title>Cat face</title><polygon points="0.0000,26.5164 0.0000,13.2582 -13.2582,13.2582" fill="#db855e" stroke="#443a34" stroke-width=".25" stroke-linejoin="round"/><polygon points="0.0000,26.5164 13.2582,13.2582 0.0000,13.2582" fill="#db855e" stroke="#443a34" stroke-width=".25" stroke-linejoin="round"/><polygon points="0.0000,26.5163 13.2580,13.2582 0.0000,13.2582" fill="#db855e" stroke="#443a34" stroke-width=".25" stroke-linejoin="round"/><polygon points="0.0000,26.5163 0.0000,13.2582 -13.2580,13.2582" fill="#db855e" stroke="#443a34" stroke-width=".25" stroke-linejoin="round"/><polygon points="0.0000,26.5164 0.0000,13.2582 13.2582,13.2582" fill="#fff6df" stroke="#443a34" stroke-width=".25" stroke-linejoin="round"/><polygon points="0.0000,26.5164 -13.2582,13.2582 0.0000,13.2582" fill="#fff6df" stroke="#443a34" stroke-width=".25" stroke-linejoin="round"/><polygon points="-39.6332,-20.7603 -53.0329,53.0329 -13.2111,17.3866" fill="#db855e" stroke="#443a34" stroke-width=".25" stroke-linejoin="round"/><polygon points="-13.2111,17.3866 -53.0329,53.0329 0.0000,36.4602" fill="#db855e" stroke="#443a34" stroke-width=".25" stroke-linejoin="round"/><polygon points="0.0000,26.5164 0.0000,13.2582 -13.2582,13.2582" fill="#db855e" stroke="#443a34" stroke-width=".25" stroke-linejoin="round"/><polygon points="0.0000,26.5164 13.2582,13.2582 0.0000,13.2582" fill="#db855e" stroke="#443a34" stroke-width=".25" stroke-linejoin="round"/><polygon points="-39.6332,-20.7603 -13.2111,17.3866 -53.0331,53.0329" fill="#fff6df" stroke="#443a34" stroke-width=".25" stroke-linejoin="round"/><polygon points="-13.2111,17.3866 0.0000,36.4602 -53.0331,53.0329" fill="#fff6df" stroke="#443a34" stroke-width=".25" stroke-linejoin="round"/><polygon points="0.0000,26.5164 -13.2582,13.2582 0.0000,13.2582" fill="#fff6df" stroke="#443a34" stroke-width=".25" stroke-linejoin="round"/><polygon points="0.0000,26.5164 0.0000,13.2582 13.2582,13.2582" fill="#fff6df" stroke="#443a34" stroke-width=".25" stroke-linejoin="round"/><polygon points="39.6332,-20.7603 13.2111,17.3866 0.0000,36.4602" fill="#fff6df" stroke="#443a34" stroke-width=".25" stroke-linejoin="round"/><polygon points="39.6332,-20.7603 0.0000,36.4602 53.0329,53.0329" fill="#db855e" stroke="#443a34" stroke-width=".25" stroke-linejoin="round"/><polygon points="0.0000,13.2582 -13.2582,13.2582 -53.0331,53.0329" fill="#db855e" stroke="#443a34" stroke-width=".25" stroke-linejoin="round"/><polygon points="0.0000,13.2582 -53.0331,53.0329 0.0000,36.4602" fill="#db855e" stroke="#443a34" stroke-width=".25" stroke-linejoin="round"/><polygon points="13.2111,17.3866 39.6332,-20.7603 53.0331,53.0329" fill="#fff6df" stroke="#443a34" stroke-width=".25" stroke-linejoin="round"/><polygon points="13.2111,17.3866 53.0331,53.0329 0.0000,36.4602" fill="#fff6df" stroke="#443a34" stroke-width=".25" stroke-linejoin="round"/><polygon points="13.2582,13.2582 0.0000,13.2582 0.0000,36.4602" fill="#db855e" stroke="#443a34" stroke-width=".25" stroke-linejoin="round"/><polygon points="13.2582,13.2582 0.0000,36.4602 53.0331,53.0329" fill="#db855e" stroke="#443a34" stroke-width=".25" stroke-linejoin="round"/><polygon points="-13.2582,13.2582 0.0000,13.2582 0.0000,36.4602" fill="#fff6df" stroke="#443a34" stroke-width=".25" stroke-linejoin="round"/><polygon points="-13.2582,13.2582 0.0000,36.4602 -53.0329,53.0329" fill="#fff6df" stroke="#443a34" stroke-width=".25" stroke-linejoin="round"/><polygon points="0.0000,13.2582 13.2582,13.2582 53.0329,53.0329" fill="#fff6df" stroke="#443a34" stroke-width=".25" stroke-linejoin="round"/><polygon points="0.0000,13.2582 53.0329,53.0329 0.0000,36.4602" fill="#fff6df" stroke="#443a34" stroke-width=".25" stroke-linejoin="round"/><polygon points="-53.0329,53.0329 0.0000,53.0329 0.0000,13.2582" fill="#db855e" stroke="#443a34" stroke-width=".25" stroke-linejoin="round"/><polygon points="-53.0329,53.0329 0.0000,13.2582 -13.2582,13.2582" fill="#db855e" stroke="#443a34" stroke-width=".25" stroke-linejoin="round"/><polygon points="0.0000,53.0329 53.0329,53.0329 13.2582,13.2582" fill="#db855e" stroke="#443a34" stroke-width=".25" stroke-linejoin="round"/><polygon points="0.0000,53.0329 13.2582,13.2582 0.0000,13.2582" fill="#db855e" stroke="#443a34" stroke-width=".25" stroke-linejoin="round"/><polygon points="0.0000,53.0329 -53.0329,53.0329 -13.2580,13.2582" fill="#fff6df" stroke="#443a34" stroke-width=".25" stroke-linejoin="round"/><polygon points="0.0000,53.0329 -13.2580,13.2582 0.0000,13.2582" fill="#fff6df" stroke="#443a34" stroke-width=".25" stroke-linejoin="round"/><polygon points="53.0329,53.0329 0.0000,53.0329 0.0000,13.2582" fill="#fff6df" stroke="#443a34" stroke-width=".25" stroke-linejoin="round"/><polygon points="53.0329,53.0329 0.0000,13.2582 13.2580,13.2582" fill="#fff6df" stroke="#443a34" stroke-width=".25" stroke-linejoin="round"/><polygon points="0.0000,53.0329 0.0000,79.5495 26.5165,79.5495" fill="#db855e" stroke="#443a34" stroke-width=".25" stroke-linejoin="round"/><polygon points="0.0000,53.0329 -26.5166,79.5495 0.0000,79.5495" fill="#db855e" stroke="#443a34" stroke-width=".25" stroke-linejoin="round"/><polygon points="-53.0331,53.0329 -13.2582,13.2582 0.0000,13.2582" fill="#fff6df" stroke="#443a34" stroke-width=".25" stroke-linejoin="round"/><polygon points="-53.0331,53.0329 0.0000,13.2582 0.0000,79.5495" fill="#fff6df" stroke="#443a34" stroke-width=".25" stroke-linejoin="round"/><polygon points="-53.0331,53.0329 0.0000,79.5495 -26.5166,79.5495" fill="#fff6df" stroke="#443a34" stroke-width=".25" stroke-linejoin="round"/><polygon points="0.0000,13.2582 13.2582,13.2582 53.0331,53.0329" fill="#fff6df" stroke="#443a34" stroke-width=".25" stroke-linejoin="round"/><polygon points="0.0000,13.2582 53.0331,53.0329 26.5165,79.5495" fill="#fff6df" stroke="#443a34" stroke-width=".25" stroke-linejoin="round"/><polygon points="0.0000,13.2582 26.5165,79.5495 0.0000,79.5495" fill="#fff6df" stroke="#443a34" stroke-width=".25" stroke-linejoin="round"/></svg>
