<svg xmlns="http://www.w3.org/2000/svg" viewBox="-56.193569999999994 -59.585519999999995 127.99868999999998 122.03814"><title>Horse head</title><polygon points="-23.4938,12.7080 -26.7621,50.0653 -43.8066,29.7525" fill="#fff6df" stroke="#443a34" stroke-width=".25" stroke-linejoin="round"/><polygon points="-23.4936,12.7081 -43.8066,29.7525 -26.7621,50.0653" fill="#db855e" stroke="#443a34" stroke-width=".25" stroke-linejoin="round"/><polygon points="-23.4936,12.7081 -26.7621,50.0653 0.6108,41.4348" fill="#db855e" stroke="#443a34" stroke-width=".25" stroke-linejoin="round"/><polygon points="51.2210,19.2447 17.1321,-21.3808 -23.4936,12.7081" fill="#db855e" stroke="#443a34" stroke-width=".25" stroke-linejoin="round"/><polygon points="51.2210,19.2447 -23.4936,12.7081 0.6108,41.4348" fill="#db855e" stroke="#443a34" stroke-width=".25" stroke-linejoin="round"/><polygon points="51.2210,19.2447 0.6108,41.4348 39.3219,29.2292" fill="#db855e" stroke="#443a34" stroke-width=".25" stroke-linejoin="round"/><polygon points="51.2210,19.2447 39.3219,29.2292 55.3567,24.1735" fill="#db855e" stroke="#443a34" stroke-width=".25" stroke-linejoin="round"/><polygon points="51.2210,19.2447 55.3567,24.1735 56.1498,15.1089" fill="#db855e" stroke="#443a34" stroke-width=".25" stroke-linejoin="round"/><polygon points="42.3735,-42.5610 17.1321,-21.3808 51.2210,19.2447" fill="#db855e" stroke="#443a34" stroke-width=".25" stroke-linejoin="round"/><polygon points="42.3735,-42.5610 51.2210,19.2447 56.1498,15.1089" fill="#db855e" stroke="#443a34" stroke-width=".25" stroke-linejoin="round"/><polygon points="42.3735,-42.5610 56.1498,15.1089 59.4181,-22.2482" fill="#db855e" stroke="#443a34" stroke-width=".25" stroke-linejoin="round"/><polygon points="1.9646,25.9608 59.4181,-22.2482 55.3567,24.1735" fill="#fff6df" stroke="#443a34" stroke-width=".25" stroke-linejoin="round"/><polygon points="1.9646,25.9608 55.3567,24.1735 39.3219,29.2292" fill="#fff6df" stroke="#443a34" stroke-width=".25" stroke-linejoin="round"/><polygon points="1.9646,25.9608 0.6108,41.4348 -26.7621,50.0653" fill="#fff6df" stroke="#443a34" stroke-width=".25" stroke-linejoin="round"/><polygon points="1.9646,25.9608 39.3219,29.2292 0.6108,41.4348" fill="#fff6df" stroke="#443a34" stroke-width=".25" stroke-linejoin="round"/><polygon points="26.9895,-29.6521 42.3735,-42.5610 59.4181,-22.2482" fill="#fff6df" stroke="#443a34" stroke-width=".25" stroke-linejoin="round"/><polygon points="26.9895,-29.6521 59.4181,-22.2482 56.9429,6.0446" fill="#fff6df" stroke="#443a34" stroke-width=".25" stroke-linejoin="round"/><polygon points="42.9496,9.3873 17.1321,-21.3808 26.9895,-29.6521" fill="#fff6df" stroke="#443a34" stroke-width=".25" stroke-linejoin="round"/><polygon points="42.9496,9.3873 26.9895,-29.6521 56.9429,6.0446" fill="#fff6df" stroke="#443a34" stroke-width=".25" stroke-linejoin="round"/><polygon points="42.9496,9.3873 56.9429,6.0446 56.5462,10.5768" fill="#fff6df" stroke="#443a34" stroke-width=".25" stroke-linejoin="round"/><polygon points="47.9003,-47.1985 17.1321,-21.3808 42.9496,9.3873" fill="#db855e" stroke="#443a34" stroke-width=".25" stroke-linejoin="round"/><polygon points="52.0142,10.1802 39.1053,-5.2038 23.7211,7.7050" fill="#db855e" stroke="#443a34" stroke-width=".25" stroke-linejoin="round"/><polygon points="39.1053,-5.2038 52.0142,10.1802 56.9429,6.0446" fill="#db855e" stroke="#443a34" stroke-width=".25" stroke-linejoin="round"/><polygon points="39.1053,-5.2038 56.9429,6.0446 59.4181,-22.2482" fill="#db855e" stroke="#443a34" stroke-width=".25" stroke-linejoin="round"/><polygon points="52.0142,10.1802 56.5462,10.5768 56.9429,6.0446" fill="#db855e" stroke="#443a34" stroke-width=".25" stroke-linejoin="round"/><polygon points="59.4181,-22.2482 23.7211,7.7050 55.3567,24.1735" fill="#db855e" stroke="#443a34" stroke-width=".25" stroke-linejoin="round"/><polygon points="39.1047,-5.2037 56.1495,15.1092 59.4177,-22.2484" fill="#db855e" stroke="#443a34" stroke-width=".25" stroke-linejoin="round"/><polygon points="39.1047,-5.2037 23.7207,7.7052 55.3567,24.1735" fill="#db855e" stroke="#443a34" stroke-width=".25" stroke-linejoin="round"/><polygon points="39.1047,-5.2037 55.3567,24.1735 56.1495,15.1092" fill="#db855e" stroke="#443a34" stroke-width=".25" stroke-linejoin="round"/><polygon points="59.4177,-22.2480 55.3567,24.1735 23.7207,7.7052" fill="#fff6df" stroke="#443a34" stroke-width=".25" stroke-linejoin="round"/><polygon points="39.1053,-5.2038 59.4181,-22.2482 56.1498,15.1089" fill="#fff6df" stroke="#443a34" stroke-width=".25" stroke-linejoin="round"/><polygon points="23.7211,7.7050 39.1053,-5.2038 56.1498,15.1089" fill="#fff6df" stroke="#443a34" stroke-width=".25" stroke-linejoin="round"/><polygon points="23.7211,7.7050 56.1498,15.1089 55.3567,24.1735" fill="#fff6df" stroke="#443a34" stroke-width=".25" stroke-linejoin="round"/><polygon points="52.0137,10.1805 56.9425,6.0447 56.5459,10.5769" fill="#fff6df" stroke="#443a34" stroke-width=".25" stroke-linejoin="round"/><polygon points="52.0137,10.1805 23.7207,7.7052 39.1047,-5.2037" fill="#fff6df" stroke="#443a34" stroke-width=".25" stroke-linejoin="round"/><polygon points="52.0137,10.1805 39.1047,-5.2037 59.4177,-22.2484" fill="#fff6df" stroke="#443a34" stroke-width=".25" stroke-linejoin="round"/><polygon points="52.0137,10.1805 59.4177,-22.2484 56.9425,6.0447" fill="#fff6df" stroke="#443a34" stroke-width=".25" stroke-linejoin="round"/><polygon points="47.9003,-47.1985 42.9495,9.3874 17.1321,-21.3808" fill="#fff6df" stroke="#443a34" stroke-width=".25" stroke-linejoin="round"/><polygon points="26.9895,-29.6521 17.1321,-21.3808 42.9495,9.3874" fill="#db855e" stroke="#443a34" stroke-width=".25" stroke-linejoin="round"/><polygon points="26.9895,-29.6521 42.9495,9.3874 56.5459,10.5769" fill="#db855e" stroke="#443a34" stroke-width=".25" stroke-linejoin="round"/><polygon points="26.9895,-29.6521 56.5459,10.5769 56.9425,6.0447" fill="#db855e" stroke="#443a34" stroke-width=".25" stroke-linejoin="round"/><polygon points="42.3735,-42.5610 26.9895,-29.6521 56.9425,6.0447" fill="#db855e" stroke="#443a34" stroke-width=".25" stroke-linejoin="round"/><polygon points="42.3735,-42.5610 56.9425,6.0447 59.4177,-22.2484" fill="#db855e" stroke="#443a34" stroke-width=".25" stroke-linejoin="round"/><polygon points="1.9647,25.9611 -26.7619,50.0657 0.6111,41.4348" fill="#db855e" stroke="#443a34" stroke-width=".25" stroke-linejoin="round"/><polygon points="1.9647,25.9611 0.6111,41.4348 39.3217,29.2293" fill="#db855e" stroke="#443a34" stroke-width=".25" stroke-linejoin="round"/><polygon points="59.4177,-22.2480 1.9647,25.9611 39.3217,29.2293" fill="#db855e" stroke="#443a34" stroke-width=".25" stroke-linejoin="round"/><polygon points="59.4177,-22.2480 39.3217,29.2293 55.3567,24.1735" fill="#db855e" stroke="#443a34" stroke-width=".25" stroke-linejoin="round"/><polygon points="-23.4936,12.7081 17.1321,-21.3808 51.2210,19.2447" fill="#fff6df" stroke="#443a34" stroke-width=".25" stroke-linejoin="round"/><polygon points="-23.4936,12.7081 51.2210,19.2447 39.3217,29.2293" fill="#fff6df" stroke="#443a34" stroke-width=".25" stroke-linejoin="round"/><polygon points="-23.4936,12.7081 39.3217,29.2293 0.6111,41.4348" fill="#fff6df" stroke="#443a34" stroke-width=".25" stroke-linejoin="round"/><polygon points="-43.8066,29.7525 -23.4936,12.7081 0.6111,41.4348" fill="#fff6df" stroke="#443a34" stroke-width=".25" stroke-linejoin="round"/><polygon points="-43.8066,29.7525 0.6111,41.4348 -26.7619,50.0657" fill="#fff6df" stroke="#443a34" stroke-width=".25" stroke-linejoin="round"/><polygon points="51.2210,19.2447 55.3567,24.1735 39.3217,29.2293" fill="#fff6df" stroke="#443a34" stroke-width=".25" stroke-linejoin="round"/><polygon points="51.2210,19.2447 56.1495,15.1092 55.3567,24.1735" fill="#fff6df" stroke="#443a34" stroke-width=".25" stroke-linejoin="round"/><polygon points="51.2210,19.2447 17.1321,-21.3808 42.3735,-42.5610" fill="#fff6df" stroke="#443a34" stroke-width=".25" stroke-linejoin="round"/><polygon points="51.2210,19.2447 42.3735,-42.5610 59.4177,-22.2484" fill="#fff6df" stroke="#443a34" stroke-width=".25" stroke-linejoin="round"/><polygon points="51.2210,19.2447 59.4177,-22.2484 56.1495,15.1092" fill="#fff6df" stroke="#443a34" stroke-width=".25" stroke-linejoin="round"/><polygon points="-23.4938,12.7080 -43.8066,29.7525 -26.7619,50.0657" fill="#db855e" stroke="#443a34" stroke-width=".25" stroke-linejoin="round"/></svg>
