<svg xmlns="http://www.w3.org/2000/svg" viewBox="-46.500000 -46.500000 93.000000 93.000000"><title>Medieval shield</title><polygon points="0.0000,-0.0000 37.5000,-37.5000 0.0000,-37.5000" fill="#ba718a" stroke="#443a34" stroke-width=".25" stroke-linejoin="round"/><polygon points="0.0000,-0.0000 0.0000,-37.5000 -37.5000,-37.5000" fill="#ba718a" stroke="#443a34" stroke-width=".25" stroke-linejoin="round"/><polygon points="0.0000,-0.0000 -37.5000,-37.5000 -37.5000,-0.0000" fill="#ba718a" stroke="#443a34" stroke-width=".25" stroke-linejoin="round"/><polygon points="0.0000,-0.0000 -37.5000,-0.0000 -37.5000,37.5000" fill="#ba718a" stroke="#443a34" stroke-width=".25" stroke-linejoin="round"/><polygon points="0.0000,-0.0000 37.5000,37.5000 37.5000,-0.0000" fill="#ba718a" stroke="#443a34" stroke-width=".25" stroke-linejoin="round"/><polygon points="0.0000,-0.0000 37.5000,-0.0000 37.5000,-37.5000" fill="#ba718a" stroke="#443a34" stroke-width=".25" stroke-linejoin="round"/><polygon points="0.0000,-0.0000 0.0000,37.5000 37.5000,37.5000" fill="#ba718a" stroke="#443a34" stroke-width=".25" stroke-linejoin="round"/><polygon points="0.0000,-0.0000 -37.5000,37.5000 0.0000,37.5000" fill="#ba718a" stroke="#443a34" stroke-width=".25" stroke-linejoin="round"/><polygon points="0.0000,-0.0000 0.0000,-37.5000 37.5000,-37.5000" fill="#fff6df" stroke="#443a34" stroke-width=".25" stroke-linejoin="round"/><polygon points="0.0000,-0.0000 -37.5000,-37.5000 0.0000,-37.5000" fill="#fff6df" stroke="#443a34" stroke-width=".25" stroke-linejoin="round"/><polygon points="0.0000,-0.0000 -37.5000,-0.0000 -37.5000,-37.5000" fill="#fff6df" stroke="#443a34" stroke-width=".25" stroke-linejoin="round"/><polygon points="0.0000,-0.0000 -37.5000,37.5000 -37.5000,-0.0000" fill="#fff6df" stroke="#443a34" stroke-width=".25" stroke-linejoin="round"/><polygon points="0.0000,-0.0000 37.5000,-0.0000 37.5000,37.5000" fill="#fff6df" stroke="#443a34" stroke-width=".25" stroke-linejoin="round"/><polygon points="0.0000,-0.0000 37.5000,-37.5000 37.5000,-0.0000" fill="#fff6df" stroke="#443a34" stroke-width=".25" stroke-linejoin="round"/><polygon points="0.0000,-0.0000 0.0000,37.5000 -37.5000,37.5000" fill="#fff6df" stroke="#443a34" stroke-width=".25" stroke-linejoin="round"/><polygon points="0.0000,-0.0000 37.5000,37.5000 0.0000,37.5000" fill="#fff6df" stroke="#443a34" stroke-width=".25" stroke-linejoin="round"/><polygon points="0.0000,-37.5000 0.0000,-0.0000 37.5000,-0.0000" fill="#ba718a" stroke="#443a34" stroke-width=".25" stroke-linejoin="round"/><polygon points="0.0000,-37.5000 37.5000,-0.0000 37.5000,-37.5000" fill="#ba718a" stroke="#443a34" stroke-width=".25" stroke-linejoin="round"/><polygon points="0.0000,-0.0000 0.0000,-37.5000 -37.5000,-37.5000" fill="#ba718a" stroke="#443a34" stroke-width=".25" stroke-linejoin="round"/><polygon points="0.0000,-0.0000 -37.5000,-37.5000 -37.5000,-0.0000" fill="#ba718a" stroke="#443a34" stroke-width=".25" stroke-linejoin="round"/><polygon points="37.5000,-0.0000 0.0000,-0.0000 0.0000,37.5000" fill="#ba718a" stroke="#443a34" stroke-width=".25" stroke-linejoin="round"/><polygon points="37.5000,-0.0000 0.0000,37.5000 37.5000,37.5000" fill="#ba718a" stroke="#443a34" stroke-width=".25" stroke-linejoin="round"/><polygon points="0.0000,-0.0000 -37.5000,-0.0000 -37.5000,37.5000" fill="#ba718a" stroke="#443a34" stroke-width=".25" stroke-linejoin="round"/><polygon points="0.0000,-0.0000 -37.5000,37.5000 0.0000,37.5000" fill="#ba718a" stroke="#443a34" stroke-width=".25" stroke-linejoin="round"/><polygon points="0.0000,-0.0000 37.5000,-0.0000 37.5000,37.5000" fill="#fff6df" stroke="#443a34" stroke-width=".25" stroke-linejoin="round"/><polygon points="0.0000,-0.0000 37.5000,37.5000 0.0000,37.5000" fill="#fff6df" stroke="#443a34" stroke-width=".25" stroke-linejoin="round"/><polygon points="0.0000,-0.0000 0.0000,-37.5000 37.5000,-37.5000" fill="#fff6df" stroke="#443a34" stroke-width=".25" stroke-linejoin="round"/><polygon points="0.0000,-0.0000 37.5000,-37.5000 37.5000,-0.0000" fill="#fff6df" stroke="#443a34" stroke-width=".25" stroke-linejoin="round"/><polygon points="0.0000,-37.5000 0.0000,-0.0000 -37.5000,-0.0000" fill="#fff6df" stroke="#443a34" stroke-width=".25" stroke-linejoin="round"/><polygon points="0.0000,-37.5000 -37.5000,-0.0000 -37.5000,-37.5000" fill="#fff6df" stroke="#443a34" stroke-width=".25" stroke-linejoin="round"/><polygon points="-37.5000,-0.0000 0.0000,-0.0000 0.0000,37.5000" fill="#fff6df" stroke="#443a34" stroke-width=".25" stroke-linejoin="round"/><polygon points="-37.5000,-0.0000 0.0000,37.5000 -37.5000,37.5000" fill="#fff6df" stroke="#443a34" stroke-width=".25" stroke-linejoin="round"/></svg>
