<svg xmlns="http://www.w3.org/2000/svg" viewBox="-17.409760846727995 -68.8614471718252 84.33099527145599 82.09886038598485"><title>Paper crane</title><polygon points="19.9470,-7.7831 13.5984,-14.1205 15.7194,-6.1653" fill="#335FC7" stroke="#443a34" stroke-width=".18" stroke-linejoin="round"/><polygon points="19.9441,-7.7805 15.7193,-6.1653 13.5984,-14.1205" fill="#F7F2E8" stroke="#443a34" stroke-width=".18" stroke-linejoin="round"/><polygon points="20.1859,-9.1528 15.7194,-6.1653 13.5984,-14.1205" fill="#F7F2E8" stroke="#443a34" stroke-width=".18" stroke-linejoin="round"/><polygon points="20.1859,-9.1528 13.5984,-14.1205 15.7193,-6.1653" fill="#335FC7" stroke="#443a34" stroke-width=".18" stroke-linejoin="round"/><polygon points="19.9470,-7.7831 15.7194,-6.1653 25.4029,-3.2400" fill="#335FC7" stroke="#443a34" stroke-width=".18" stroke-linejoin="round"/><polygon points="19.9441,-7.7805 25.3955,-3.2332 15.7193,-6.1653" fill="#F7F2E8" stroke="#443a34" stroke-width=".18" stroke-linejoin="round"/><polygon points="20.1859,-9.1528 25.9895,-3.8105 15.7194,-6.1653" fill="#F7F2E8" stroke="#443a34" stroke-width=".18" stroke-linejoin="round"/><polygon points="20.1859,-9.1528 15.7193,-6.1653 25.9895,-3.8105" fill="#335FC7" stroke="#443a34" stroke-width=".18" stroke-linejoin="round"/><polygon points="19.5030,-9.3874 13.9798,-12.6155 13.5803,-14.1039" fill="#F7F2E8" stroke="#443a34" stroke-width=".18" stroke-linejoin="round"/><polygon points="19.5015,-9.3859 13.5803,-14.1039 13.9798,-12.6154" fill="#335FC7" stroke="#443a34" stroke-width=".18" stroke-linejoin="round"/><polygon points="19.4167,-10.4410 13.5803,-14.1039 13.9798,-12.6155" fill="#335FC7" stroke="#443a34" stroke-width=".18" stroke-linejoin="round"/><polygon points="19.4156,-10.4400 13.9798,-12.6154 13.5803,-14.1039" fill="#F7F2E8" stroke="#443a34" stroke-width=".18" stroke-linejoin="round"/><polygon points="19.5030,-9.3874 25.3941,-3.2319 13.9798,-12.6155" fill="#F7F2E8" stroke="#443a34" stroke-width=".18" stroke-linejoin="round"/><polygon points="19.5015,-9.3859 13.9798,-12.6154 25.3935,-3.2314" fill="#335FC7" stroke="#443a34" stroke-width=".18" stroke-linejoin="round"/><polygon points="19.4167,-10.4410 13.9798,-12.6155 25.3938,-3.2316" fill="#335FC7" stroke="#443a34" stroke-width=".18" stroke-linejoin="round"/><polygon points="19.4156,-10.4400 25.3938,-3.2316 13.9798,-12.6154" fill="#F7F2E8" stroke="#443a34" stroke-width=".18" stroke-linejoin="round"/><polygon points="8.4754,-28.4944 15.7194,-6.1653 25.9895,-3.8105" fill="#335FC7" stroke="#443a34" stroke-width=".18" stroke-linejoin="round"/><polygon points="8.4754,-28.4944 25.9895,-3.8105 15.7193,-6.1653" fill="#F7F2E8" stroke="#443a34" stroke-width=".18" stroke-linejoin="round"/><polygon points="8.3270,-28.3510 25.4029,-3.2400 15.7194,-6.1653" fill="#F7F2E8" stroke="#443a34" stroke-width=".18" stroke-linejoin="round"/><polygon points="8.3045,-28.3303 15.7193,-6.1653 25.3955,-3.2332" fill="#335FC7" stroke="#443a34" stroke-width=".18" stroke-linejoin="round"/><polygon points="19.9470,-7.7831 25.0609,-7.6009 13.5984,-14.1205" fill="#335FC7" stroke="#443a34" stroke-width=".18" stroke-linejoin="round"/><polygon points="19.9441,-7.7805 13.5984,-14.1205 25.0603,-7.6003" fill="#F7F2E8" stroke="#443a34" stroke-width=".18" stroke-linejoin="round"/><polygon points="19.5030,-9.3874 13.5803,-14.1039 25.0554,-7.5958" fill="#F7F2E8" stroke="#443a34" stroke-width=".18" stroke-linejoin="round"/><polygon points="19.5015,-9.3859 25.0547,-7.5952 13.5803,-14.1039" fill="#335FC7" stroke="#443a34" stroke-width=".18" stroke-linejoin="round"/><polygon points="19.9470,-7.7831 25.4029,-3.2400 25.0609,-7.6009" fill="#335FC7" stroke="#443a34" stroke-width=".18" stroke-linejoin="round"/><polygon points="19.9441,-7.7805 25.0603,-7.6003 25.3955,-3.2332" fill="#F7F2E8" stroke="#443a34" stroke-width=".18" stroke-linejoin="round"/><polygon points="19.5030,-9.3874 25.0554,-7.5958 25.3941,-3.2319" fill="#F7F2E8" stroke="#443a34" stroke-width=".18" stroke-linejoin="round"/><polygon points="19.5015,-9.3859 25.3935,-3.2314 25.0547,-7.5952" fill="#335FC7" stroke="#443a34" stroke-width=".18" stroke-linejoin="round"/><polygon points="20.1859,-9.1528 13.5984,-14.1205 25.4537,-12.5331" fill="#F7F2E8" stroke="#443a34" stroke-width=".18" stroke-linejoin="round"/><polygon points="20.1859,-9.1528 25.4537,-12.5331 13.5984,-14.1205" fill="#335FC7" stroke="#443a34" stroke-width=".18" stroke-linejoin="round"/><polygon points="20.1859,-9.1528 25.4537,-12.5331 25.9895,-3.8105" fill="#F7F2E8" stroke="#443a34" stroke-width=".18" stroke-linejoin="round"/><polygon points="20.1859,-9.1528 25.9895,-3.8105 25.4537,-12.5331" fill="#335FC7" stroke="#443a34" stroke-width=".18" stroke-linejoin="round"/><polygon points="19.4167,-10.4410 24.7108,-11.8109 13.5803,-14.1039" fill="#335FC7" stroke="#443a34" stroke-width=".18" stroke-linejoin="round"/><polygon points="19.4156,-10.4400 13.5803,-14.1039 24.7108,-11.8109" fill="#F7F2E8" stroke="#443a34" stroke-width=".18" stroke-linejoin="round"/><polygon points="30.6215,-1.7114 35.4990,5.0763 25.3945,-3.2323" fill="#F7F2E8" stroke="#443a34" stroke-width=".18" stroke-linejoin="round"/><polygon points="30.6163,-1.7066 25.3935,-3.2314 35.4990,5.0763" fill="#335FC7" stroke="#443a34" stroke-width=".18" stroke-linejoin="round"/><polygon points="30.9036,-3.0763 26.0717,-3.8046 35.4990,5.0763" fill="#335FC7" stroke="#443a34" stroke-width=".18" stroke-linejoin="round"/><polygon points="30.9033,-3.0761 35.4990,5.0763 26.0717,-3.8046" fill="#F7F2E8" stroke="#443a34" stroke-width=".18" stroke-linejoin="round"/><polygon points="30.6215,-1.7114 25.3945,-3.2323 25.0602,-7.6003" fill="#F7F2E8" stroke="#443a34" stroke-width=".18" stroke-linejoin="round"/><polygon points="30.6163,-1.7066 25.0547,-7.5952 25.3935,-3.2314" fill="#335FC7" stroke="#443a34" stroke-width=".18" stroke-linejoin="round"/><polygon points="19.4167,-10.4410 25.3938,-3.2316 24.7108,-11.8109" fill="#335FC7" stroke="#443a34" stroke-width=".18" stroke-linejoin="round"/><polygon points="19.4156,-10.4400 24.7108,-11.8109 25.3938,-3.2316" fill="#F7F2E8" stroke="#443a34" stroke-width=".18" stroke-linejoin="round"/><polygon points="20.1757,-27.3284 25.0603,-7.6003 13.5984,-14.1205" fill="#F7F2E8" stroke="#443a34" stroke-width=".18" stroke-linejoin="round"/><polygon points="20.1708,-27.3260 13.5984,-14.1205 25.0603,-7.6003" fill="#335FC7" stroke="#443a34" stroke-width=".18" stroke-linejoin="round"/><polygon points="30.8311,-2.9637 25.0609,-7.6009 25.4029,-3.2400" fill="#335FC7" stroke="#443a34" stroke-width=".18" stroke-linejoin="round"/><polygon points="30.8267,-2.9597 25.4087,-3.2454 25.0348,-7.5768" fill="#F7F2E8" stroke="#443a34" stroke-width=".18" stroke-linejoin="round"/><polygon points="18.2241,-18.7752 25.0603,-7.6003 13.5984,-14.1205" fill="#F7F2E8" stroke="#443a34" stroke-width=".18" stroke-linejoin="round"/><polygon points="18.2189,-18.7705 13.5984,-14.1205 25.0609,-7.6009" fill="#335FC7" stroke="#443a34" stroke-width=".18" stroke-linejoin="round"/><polygon points="18.2057,-18.7584 25.0548,-7.5952 13.5803,-14.1039" fill="#F7F2E8" stroke="#443a34" stroke-width=".18" stroke-linejoin="round"/><polygon points="18.2057,-18.7584 13.5803,-14.1039 25.0547,-7.5952" fill="#335FC7" stroke="#443a34" stroke-width=".18" stroke-linejoin="round"/><polygon points="10.8276,-24.5139 25.4537,-12.5331 13.5984,-14.1205" fill="#F7F2E8" stroke="#443a34" stroke-width=".18" stroke-linejoin="round"/><polygon points="13.5984,-14.1205 25.4537,-12.5331 10.8276,-24.5139" fill="#335FC7" stroke="#443a34" stroke-width=".18" stroke-linejoin="round"/><polygon points="18.2241,-18.7752 13.5984,-14.1205 10.8276,-24.5139" fill="#F7F2E8" stroke="#443a34" stroke-width=".18" stroke-linejoin="round"/><polygon points="18.2189,-18.7705 10.8276,-24.5139 13.5984,-14.1205" fill="#335FC7" stroke="#443a34" stroke-width=".18" stroke-linejoin="round"/><polygon points="18.2057,-18.7584 13.5803,-14.1039 10.7964,-24.4853" fill="#F7F2E8" stroke="#443a34" stroke-width=".18" stroke-linejoin="round"/><polygon points="18.2057,-18.7584 10.7964,-24.4853 13.5803,-14.1039" fill="#335FC7" stroke="#443a34" stroke-width=".18" stroke-linejoin="round"/><polygon points="10.7964,-24.4853 24.7108,-11.8109 13.5803,-14.1039" fill="#F7F2E8" stroke="#443a34" stroke-width=".18" stroke-linejoin="round"/><polygon points="13.5803,-14.1039 24.7108,-11.8109 10.7964,-24.4853" fill="#335FC7" stroke="#443a34" stroke-width=".18" stroke-linejoin="round"/><polygon points="30.9036,-3.0763 25.5210,-12.4963 26.0717,-3.8046" fill="#335FC7" stroke="#443a34" stroke-width=".18" stroke-linejoin="round"/><polygon points="30.9033,-3.0761 26.0717,-3.8046 25.5210,-12.4963" fill="#F7F2E8" stroke="#443a34" stroke-width=".18" stroke-linejoin="round"/><polygon points="20.1757,-27.3284 13.5984,-14.1205 14.4797,-38.8395" fill="#F7F2E8" stroke="#443a34" stroke-width=".18" stroke-linejoin="round"/><polygon points="20.1708,-27.3260 14.4797,-38.8395 13.5984,-14.1205" fill="#335FC7" stroke="#443a34" stroke-width=".18" stroke-linejoin="round"/><polygon points="25.4537,-12.5331 13.5984,-14.1205 14.4797,-38.8395" fill="#F7F2E8" stroke="#443a34" stroke-width=".18" stroke-linejoin="round"/><polygon points="25.4537,-12.5331 14.4797,-38.8395 13.5984,-14.1205" fill="#335FC7" stroke="#443a34" stroke-width=".18" stroke-linejoin="round"/><polygon points="15.8406,-24.2828 25.0554,-7.5958 13.5803,-14.1039" fill="#F7F2E8" stroke="#443a34" stroke-width=".18" stroke-linejoin="round"/><polygon points="15.8404,-24.2826 13.5803,-14.1039 25.0548,-7.5952" fill="#335FC7" stroke="#443a34" stroke-width=".18" stroke-linejoin="round"/><polygon points="30.8267,-2.9597 36.3418,0.0630 25.4087,-3.2454" fill="#F7F2E8" stroke="#443a34" stroke-width=".18" stroke-linejoin="round"/><polygon points="30.8311,-2.9637 25.4029,-3.2400 36.3417,0.0630" fill="#335FC7" stroke="#443a34" stroke-width=".18" stroke-linejoin="round"/><polygon points="30.7493,-4.0215 24.7131,-11.8130 25.4081,-3.2448" fill="#335FC7" stroke="#443a34" stroke-width=".18" stroke-linejoin="round"/><polygon points="30.7490,-4.0212 25.4081,-3.2448 24.7131,-11.8130" fill="#F7F2E8" stroke="#443a34" stroke-width=".18" stroke-linejoin="round"/><polygon points="30.7493,-4.0215 25.4081,-3.2448 36.3418,0.0630" fill="#335FC7" stroke="#443a34" stroke-width=".18" stroke-linejoin="round"/><polygon points="30.7490,-4.0212 36.3417,0.0630 25.4081,-3.2448" fill="#F7F2E8" stroke="#443a34" stroke-width=".18" stroke-linejoin="round"/><polygon points="8.4754,-28.4944 -4.7531,-52.6743 15.7194,-6.1653" fill="#335FC7" stroke="#443a34" stroke-width=".18" stroke-linejoin="round"/><polygon points="8.4754,-28.4944 15.7193,-6.1653 -4.7531,-52.6743" fill="#F7F2E8" stroke="#443a34" stroke-width=".18" stroke-linejoin="round"/><polygon points="8.3270,-28.3510 15.7194,-6.1653 -4.7531,-52.6743" fill="#F7F2E8" stroke="#443a34" stroke-width=".18" stroke-linejoin="round"/><polygon points="8.3045,-28.3303 -4.7531,-52.6743 15.7193,-6.1653" fill="#335FC7" stroke="#443a34" stroke-width=".18" stroke-linejoin="round"/><polygon points="30.6215,-1.7114 36.5222,-1.0801 35.4990,5.0763" fill="#F7F2E8" stroke="#443a34" stroke-width=".18" stroke-linejoin="round"/><polygon points="30.6163,-1.7066 35.4990,5.0763 36.5222,-1.0801" fill="#335FC7" stroke="#443a34" stroke-width=".18" stroke-linejoin="round"/><polygon points="30.9036,-3.0763 35.4990,5.0763 36.5222,-1.0801" fill="#335FC7" stroke="#443a34" stroke-width=".18" stroke-linejoin="round"/><polygon points="30.9033,-3.0761 36.5222,-1.0801 35.4990,5.0763" fill="#F7F2E8" stroke="#443a34" stroke-width=".18" stroke-linejoin="round"/><polygon points="30.6215,-1.7114 25.0602,-7.6003 36.5222,-1.0801" fill="#F7F2E8" stroke="#443a34" stroke-width=".18" stroke-linejoin="round"/><polygon points="30.6163,-1.7066 36.5222,-1.0801 25.0547,-7.5952" fill="#335FC7" stroke="#443a34" stroke-width=".18" stroke-linejoin="round"/><polygon points="24.7108,-11.8109 8.0336,-34.3088 13.5803,-14.1039" fill="#335FC7" stroke="#443a34" stroke-width=".18" stroke-linejoin="round"/><polygon points="24.7108,-11.8109 13.5803,-14.1039 8.0336,-34.3088" fill="#F7F2E8" stroke="#443a34" stroke-width=".18" stroke-linejoin="round"/><polygon points="30.8311,-2.9637 36.5284,-1.0858 25.0609,-7.6009" fill="#335FC7" stroke="#443a34" stroke-width=".18" stroke-linejoin="round"/><polygon points="30.8267,-2.9597 25.0348,-7.5768 36.5278,-1.0852" fill="#F7F2E8" stroke="#443a34" stroke-width=".18" stroke-linejoin="round"/><polygon points="14.6019,-25.9396 25.4087,-3.2454 36.3418,0.0630" fill="#335FC7" stroke="#443a34" stroke-width=".18" stroke-linejoin="round"/><polygon points="14.6017,-25.9394 36.3418,0.0630 25.4081,-3.2448" fill="#F7F2E8" stroke="#443a34" stroke-width=".18" stroke-linejoin="round"/><polygon points="14.6017,-25.9394 25.4081,-3.2448 36.3417,0.0630" fill="#335FC7" stroke="#443a34" stroke-width=".18" stroke-linejoin="round"/><polygon points="14.6000,-25.9378 36.3417,0.0630 25.4029,-3.2400" fill="#F7F2E8" stroke="#443a34" stroke-width=".18" stroke-linejoin="round"/><polygon points="15.8406,-24.2828 13.5803,-14.1039 8.0336,-34.3088" fill="#F7F2E8" stroke="#443a34" stroke-width=".18" stroke-linejoin="round"/><polygon points="15.8404,-24.2826 8.0336,-34.3088 13.5803,-14.1039" fill="#335FC7" stroke="#443a34" stroke-width=".18" stroke-linejoin="round"/><polygon points="30.9036,-3.0763 36.5222,-1.0801 25.5210,-12.4963" fill="#335FC7" stroke="#443a34" stroke-width=".18" stroke-linejoin="round"/><polygon points="30.9033,-3.0761 25.5210,-12.4963 36.5222,-1.0801" fill="#F7F2E8" stroke="#443a34" stroke-width=".18" stroke-linejoin="round"/><polygon points="8.4754,-28.4944 25.9895,-3.8105 -2.9942,-51.3885" fill="#335FC7" stroke="#443a34" stroke-width=".18" stroke-linejoin="round"/><polygon points="8.4754,-28.4944 -2.9942,-51.3885 25.9895,-3.8105" fill="#F7F2E8" stroke="#443a34" stroke-width=".18" stroke-linejoin="round"/><polygon points="20.1757,-27.3284 14.4797,-38.8395 16.8669,-42.0117" fill="#F7F2E8" stroke="#443a34" stroke-width=".18" stroke-linejoin="round"/><polygon points="20.1708,-27.3260 16.8669,-42.0117 14.4797,-38.8395" fill="#335FC7" stroke="#443a34" stroke-width=".18" stroke-linejoin="round"/><polygon points="30.8311,-2.9637 36.3417,0.0630 36.5284,-1.0858" fill="#335FC7" stroke="#443a34" stroke-width=".18" stroke-linejoin="round"/><polygon points="30.8267,-2.9597 36.5278,-1.0852 36.3418,0.0630" fill="#F7F2E8" stroke="#443a34" stroke-width=".18" stroke-linejoin="round"/><polygon points="8.3045,-28.3303 25.3955,-3.2332 -3.0052,-51.3775" fill="#335FC7" stroke="#443a34" stroke-width=".18" stroke-linejoin="round"/><polygon points="8.3270,-28.3510 -3.0449,-51.3397 25.4029,-3.2400" fill="#F7F2E8" stroke="#443a34" stroke-width=".18" stroke-linejoin="round"/><polygon points="30.7490,-4.0212 24.7131,-11.8130 36.5284,-1.0858" fill="#F7F2E8" stroke="#443a34" stroke-width=".18" stroke-linejoin="round"/><polygon points="30.7493,-4.0215 36.5278,-1.0852 24.7131,-11.8130" fill="#335FC7" stroke="#443a34" stroke-width=".18" stroke-linejoin="round"/><polygon points="30.7490,-4.0212 36.5284,-1.0858 36.3417,0.0630" fill="#F7F2E8" stroke="#443a34" stroke-width=".18" stroke-linejoin="round"/><polygon points="30.7493,-4.0215 36.3418,0.0630 36.5278,-1.0852" fill="#335FC7" stroke="#443a34" stroke-width=".18" stroke-linejoin="round"/><polygon points="30.8596,-34.0634 58.7602,-60.7004 16.8669,-42.0117" fill="#335FC7" stroke="#443a34" stroke-width=".18" stroke-linejoin="round"/><polygon points="16.8669,-42.0117 58.7602,-60.7004 30.8596,-34.0634" fill="#F7F2E8" stroke="#443a34" stroke-width=".18" stroke-linejoin="round"/><polygon points="30.7131,-11.6677 25.0609,-7.6009 36.5284,-1.0858" fill="#335FC7" stroke="#443a34" stroke-width=".18" stroke-linejoin="round"/><polygon points="30.7137,-11.6682 36.5283,-1.0857 25.0548,-7.5952" fill="#F7F2E8" stroke="#443a34" stroke-width=".18" stroke-linejoin="round"/><polygon points="30.7096,-11.6645 36.5222,-1.0801 25.0603,-7.6003" fill="#F7F2E8" stroke="#443a34" stroke-width=".18" stroke-linejoin="round"/><polygon points="30.7103,-11.6651 25.0547,-7.5952 36.5222,-1.0801" fill="#335FC7" stroke="#443a34" stroke-width=".18" stroke-linejoin="round"/><polygon points="20.1757,-27.3284 30.8596,-34.0634 25.0603,-7.6003" fill="#F7F2E8" stroke="#443a34" stroke-width=".18" stroke-linejoin="round"/><polygon points="20.1708,-27.3260 25.0603,-7.6003 30.8596,-34.0634" fill="#335FC7" stroke="#443a34" stroke-width=".18" stroke-linejoin="round"/><polygon points="14.6019,-25.9396 -3.0448,-51.3398 25.4087,-3.2454" fill="#335FC7" stroke="#443a34" stroke-width=".18" stroke-linejoin="round"/><polygon points="14.6017,-25.9394 25.4081,-3.2448 -3.0448,-51.3398" fill="#F7F2E8" stroke="#443a34" stroke-width=".18" stroke-linejoin="round"/><polygon points="14.6017,-25.9394 -3.0448,-51.3398 25.4081,-3.2448" fill="#335FC7" stroke="#443a34" stroke-width=".18" stroke-linejoin="round"/><polygon points="14.6000,-25.9378 25.4029,-3.2400 -3.0449,-51.3397" fill="#F7F2E8" stroke="#443a34" stroke-width=".18" stroke-linejoin="round"/><polygon points="36.5558,-18.0187 25.0603,-7.6003 36.5222,-1.0801" fill="#335FC7" stroke="#443a34" stroke-width=".18" stroke-linejoin="round"/><polygon points="36.5558,-18.0187 36.5222,-1.0801 25.0602,-7.6003" fill="#F7F2E8" stroke="#443a34" stroke-width=".18" stroke-linejoin="round"/><polygon points="32.2449,-14.9990 25.0548,-7.5952 36.5283,-1.0857" fill="#335FC7" stroke="#443a34" stroke-width=".18" stroke-linejoin="round"/><polygon points="32.2409,-14.9953 36.5278,-1.0852 25.0348,-7.5768" fill="#F7F2E8" stroke="#443a34" stroke-width=".18" stroke-linejoin="round"/><polygon points="20.1757,-27.3284 16.8669,-42.0117 30.8596,-34.0634" fill="#F7F2E8" stroke="#443a34" stroke-width=".18" stroke-linejoin="round"/><polygon points="20.1708,-27.3260 30.8596,-34.0634 16.8669,-42.0117" fill="#335FC7" stroke="#443a34" stroke-width=".18" stroke-linejoin="round"/><polygon points="18.2241,-18.7752 23.3992,-28.8563 25.0603,-7.6003" fill="#F7F2E8" stroke="#443a34" stroke-width=".18" stroke-linejoin="round"/><polygon points="18.2189,-18.7705 25.0609,-7.6009 23.3992,-28.8563" fill="#335FC7" stroke="#443a34" stroke-width=".18" stroke-linejoin="round"/><polygon points="18.2057,-18.7584 23.3992,-28.8563 25.0548,-7.5952" fill="#F7F2E8" stroke="#443a34" stroke-width=".18" stroke-linejoin="round"/><polygon points="18.2057,-18.7584 25.0547,-7.5952 23.3992,-28.8563" fill="#335FC7" stroke="#443a34" stroke-width=".18" stroke-linejoin="round"/><polygon points="18.2241,-18.7752 10.8276,-24.5139 23.3992,-28.8563" fill="#F7F2E8" stroke="#443a34" stroke-width=".18" stroke-linejoin="round"/><polygon points="18.2189,-18.7705 23.3992,-28.8563 10.8276,-24.5139" fill="#335FC7" stroke="#443a34" stroke-width=".18" stroke-linejoin="round"/><polygon points="18.2057,-18.7584 10.7964,-24.4853 23.3992,-28.8563" fill="#F7F2E8" stroke="#443a34" stroke-width=".18" stroke-linejoin="round"/><polygon points="18.2057,-18.7584 23.3992,-28.8563 10.7964,-24.4853" fill="#335FC7" stroke="#443a34" stroke-width=".18" stroke-linejoin="round"/><polygon points="36.5558,-18.0187 30.8596,-34.0634 25.0603,-7.6003" fill="#335FC7" stroke="#443a34" stroke-width=".18" stroke-linejoin="round"/><polygon points="36.5558,-18.0187 25.0602,-7.6003 30.8596,-34.0634" fill="#F7F2E8" stroke="#443a34" stroke-width=".18" stroke-linejoin="round"/><polygon points="36.5222,-1.0801 25.5210,-12.4963 37.8588,-9.1233" fill="#F7F2E8" stroke="#443a34" stroke-width=".18" stroke-linejoin="round"/><polygon points="37.8588,-9.1233 25.5210,-12.4963 36.5222,-1.0801" fill="#335FC7" stroke="#443a34" stroke-width=".18" stroke-linejoin="round"/><polygon points="36.5284,-1.0858 24.7131,-11.8130 37.8659,-9.1297" fill="#F7F2E8" stroke="#443a34" stroke-width=".18" stroke-linejoin="round"/><polygon points="37.8659,-9.1297 24.7131,-11.8130 36.5283,-1.0857" fill="#335FC7" stroke="#443a34" stroke-width=".18" stroke-linejoin="round"/><polygon points="14.6019,-25.9396 36.3418,0.0630 -0.3228,-49.2133" fill="#335FC7" stroke="#443a34" stroke-width=".18" stroke-linejoin="round"/><polygon points="14.6017,-25.9394 -0.3228,-49.2133 36.3418,0.0630" fill="#F7F2E8" stroke="#443a34" stroke-width=".18" stroke-linejoin="round"/><polygon points="14.6017,-25.9394 36.3417,0.0630 -0.3228,-49.2133" fill="#335FC7" stroke="#443a34" stroke-width=".18" stroke-linejoin="round"/><polygon points="14.6000,-25.9378 -0.3228,-49.2133 36.3417,0.0630" fill="#F7F2E8" stroke="#443a34" stroke-width=".18" stroke-linejoin="round"/><polygon points="15.8406,-24.2828 23.2777,-28.7444 25.0554,-7.5958" fill="#F7F2E8" stroke="#443a34" stroke-width=".18" stroke-linejoin="round"/><polygon points="15.8404,-24.2826 25.0548,-7.5952 23.2777,-28.7444" fill="#335FC7" stroke="#443a34" stroke-width=".18" stroke-linejoin="round"/><polygon points="15.8406,-24.2828 8.0336,-34.3088 9.2682,-36.6723" fill="#F7F2E8" stroke="#443a34" stroke-width=".18" stroke-linejoin="round"/><polygon points="15.8404,-24.2826 9.2682,-36.6723 8.0336,-34.3088" fill="#335FC7" stroke="#443a34" stroke-width=".18" stroke-linejoin="round"/><polygon points="44.8523,-26.1150 58.7602,-60.7004 30.8596,-34.0634" fill="#335FC7" stroke="#443a34" stroke-width=".18" stroke-linejoin="round"/><polygon points="30.8596,-34.0634 58.7602,-60.7004 44.8523,-26.1150" fill="#F7F2E8" stroke="#443a34" stroke-width=".18" stroke-linejoin="round"/><polygon points="25.5210,-12.4963 45.4738,-21.2297 36.5222,-1.0801" fill="#F7F2E8" stroke="#443a34" stroke-width=".18" stroke-linejoin="round"/><polygon points="25.5210,-12.4963 36.5222,-1.0801 45.4738,-21.2297" fill="#335FC7" stroke="#443a34" stroke-width=".18" stroke-linejoin="round"/><polygon points="8.4754,-28.4944 -2.9942,-51.3885 -4.7531,-52.6743" fill="#335FC7" stroke="#443a34" stroke-width=".18" stroke-linejoin="round"/><polygon points="8.4754,-28.4944 -4.7531,-52.6743 -2.9942,-51.3885" fill="#F7F2E8" stroke="#443a34" stroke-width=".18" stroke-linejoin="round"/><polygon points="8.3045,-28.3303 -3.0052,-51.3775 -4.7531,-52.6743" fill="#335FC7" stroke="#443a34" stroke-width=".18" stroke-linejoin="round"/><polygon points="8.3270,-28.3510 -4.7531,-52.6743 -3.0449,-51.3397" fill="#F7F2E8" stroke="#443a34" stroke-width=".18" stroke-linejoin="round"/><polygon points="30.7131,-11.6677 23.3992,-28.8563 25.0609,-7.6009" fill="#335FC7" stroke="#443a34" stroke-width=".18" stroke-linejoin="round"/><polygon points="30.7096,-11.6645 25.0603,-7.6003 23.3992,-28.8563" fill="#F7F2E8" stroke="#443a34" stroke-width=".18" stroke-linejoin="round"/><polygon points="30.7137,-11.6682 25.0548,-7.5952 23.3992,-28.8563" fill="#F7F2E8" stroke="#443a34" stroke-width=".18" stroke-linejoin="round"/><polygon points="30.7103,-11.6651 23.3992,-28.8563 25.0547,-7.5952" fill="#335FC7" stroke="#443a34" stroke-width=".18" stroke-linejoin="round"/><polygon points="30.7137,-11.6682 37.8659,-9.1297 36.5283,-1.0857" fill="#F7F2E8" stroke="#443a34" stroke-width=".18" stroke-linejoin="round"/><polygon points="30.7131,-11.6677 36.5284,-1.0858 37.8659,-9.1297" fill="#335FC7" stroke="#443a34" stroke-width=".18" stroke-linejoin="round"/><polygon points="30.7103,-11.6651 36.5222,-1.0801 37.8588,-9.1233" fill="#335FC7" stroke="#443a34" stroke-width=".18" stroke-linejoin="round"/><polygon points="30.7096,-11.6645 37.8588,-9.1233 36.5222,-1.0801" fill="#F7F2E8" stroke="#443a34" stroke-width=".18" stroke-linejoin="round"/><polygon points="24.7131,-11.8130 39.0627,-16.7404 36.5283,-1.0857" fill="#F7F2E8" stroke="#443a34" stroke-width=".18" stroke-linejoin="round"/><polygon points="24.7131,-11.8130 36.5278,-1.0852 39.0627,-16.7404" fill="#335FC7" stroke="#443a34" stroke-width=".18" stroke-linejoin="round"/><polygon points="-2.9942,-51.3885 -9.2487,-52.0598 -4.7531,-52.6743" fill="#F7F2E8" stroke="#443a34" stroke-width=".18" stroke-linejoin="round"/><polygon points="-4.7531,-52.6743 -9.2487,-52.0598 -2.9942,-51.3885" fill="#335FC7" stroke="#443a34" stroke-width=".18" stroke-linejoin="round"/><polygon points="-3.0052,-51.3775 -9.2487,-52.0598 -4.7531,-52.6743" fill="#F7F2E8" stroke="#443a34" stroke-width=".18" stroke-linejoin="round"/><polygon points="-9.2487,-52.0598 -3.0449,-51.3397 -4.7531,-52.6743" fill="#335FC7" stroke="#443a34" stroke-width=".18" stroke-linejoin="round"/><polygon points="32.2449,-14.9990 23.2777,-28.7444 25.0548,-7.5952" fill="#335FC7" stroke="#443a34" stroke-width=".18" stroke-linejoin="round"/><polygon points="32.2409,-14.9953 25.0348,-7.5768 23.2777,-28.7444" fill="#F7F2E8" stroke="#443a34" stroke-width=".18" stroke-linejoin="round"/><polygon points="14.6019,-25.9396 -0.3228,-49.2133 -3.0448,-51.3398" fill="#335FC7" stroke="#443a34" stroke-width=".18" stroke-linejoin="round"/><polygon points="14.6017,-25.9394 -3.0448,-51.3398 -0.3228,-49.2133" fill="#F7F2E8" stroke="#443a34" stroke-width=".18" stroke-linejoin="round"/><polygon points="14.6017,-25.9394 -0.3228,-49.2133 -3.0448,-51.3398" fill="#335FC7" stroke="#443a34" stroke-width=".18" stroke-linejoin="round"/><polygon points="14.6000,-25.9378 -3.0449,-51.3397 -0.3228,-49.2133" fill="#F7F2E8" stroke="#443a34" stroke-width=".18" stroke-linejoin="round"/><polygon points="-9.2487,-52.0598 -3.0448,-51.3398 -0.3228,-49.2133" fill="#F7F2E8" stroke="#443a34" stroke-width=".18" stroke-linejoin="round"/><polygon points="-0.3228,-49.2133 -9.2487,-52.0598 -3.0448,-51.3398" fill="#F7F2E8" stroke="#443a34" stroke-width=".18" stroke-linejoin="round"/><polygon points="-3.0448,-51.3398 -9.2487,-52.0598 -0.3228,-49.2133" fill="#335FC7" stroke="#443a34" stroke-width=".18" stroke-linejoin="round"/><polygon points="-3.0449,-51.3397 -9.2487,-52.0598 -0.3228,-49.2133" fill="#335FC7" stroke="#443a34" stroke-width=".18" stroke-linejoin="round"/><polygon points="25.3941,-3.2319 51.5259,-25.1025 13.9798,-12.6155" fill="#335FC7" stroke="#443a34" stroke-width=".18" stroke-linejoin="round"/><polygon points="13.9798,-12.6155 51.5259,-25.1025 25.3938,-3.2316" fill="#F7F2E8" stroke="#443a34" stroke-width=".18" stroke-linejoin="round"/><polygon points="25.3938,-3.2316 51.5259,-25.1025 13.9798,-12.6154" fill="#335FC7" stroke="#443a34" stroke-width=".18" stroke-linejoin="round"/><polygon points="51.5259,-25.1025 25.3935,-3.2314 13.9798,-12.6154" fill="#F7F2E8" stroke="#443a34" stroke-width=".18" stroke-linejoin="round"/><polygon points="36.5558,-18.0187 36.5222,-1.0801 45.4738,-21.2297" fill="#335FC7" stroke="#443a34" stroke-width=".18" stroke-linejoin="round"/><polygon points="36.5558,-18.0187 45.4738,-21.2297 36.5222,-1.0801" fill="#F7F2E8" stroke="#443a34" stroke-width=".18" stroke-linejoin="round"/><polygon points="15.8406,-24.2828 9.2682,-36.6723 23.2777,-28.7444" fill="#F7F2E8" stroke="#443a34" stroke-width=".18" stroke-linejoin="round"/><polygon points="15.8404,-24.2826 23.2777,-28.7444 9.2682,-36.6723" fill="#335FC7" stroke="#443a34" stroke-width=".18" stroke-linejoin="round"/><polygon points="35.4990,5.0763 51.5259,-25.1025 26.0717,-3.8046" fill="#335FC7" stroke="#443a34" stroke-width=".18" stroke-linejoin="round"/><polygon points="26.0717,-3.8046 51.5259,-25.1025 35.4990,5.0763" fill="#F7F2E8" stroke="#443a34" stroke-width=".18" stroke-linejoin="round"/><polygon points="51.5259,-25.1025 25.3945,-3.2323 35.4990,5.0763" fill="#335FC7" stroke="#443a34" stroke-width=".18" stroke-linejoin="round"/><polygon points="25.3935,-3.2314 51.5259,-25.1025 35.4990,5.0763" fill="#F7F2E8" stroke="#443a34" stroke-width=".18" stroke-linejoin="round"/><polygon points="30.7137,-11.6682 23.3992,-28.8563 37.8659,-9.1297" fill="#F7F2E8" stroke="#443a34" stroke-width=".18" stroke-linejoin="round"/><polygon points="30.7131,-11.6677 37.8659,-9.1297 23.3992,-28.8563" fill="#335FC7" stroke="#443a34" stroke-width=".18" stroke-linejoin="round"/><polygon points="30.7103,-11.6651 37.8588,-9.1233 23.3992,-28.8563" fill="#335FC7" stroke="#443a34" stroke-width=".18" stroke-linejoin="round"/><polygon points="30.7096,-11.6645 23.3992,-28.8563 37.8588,-9.1233" fill="#F7F2E8" stroke="#443a34" stroke-width=".18" stroke-linejoin="round"/><polygon points="36.5558,-18.0187 44.8523,-26.1150 30.8596,-34.0634" fill="#335FC7" stroke="#443a34" stroke-width=".18" stroke-linejoin="round"/><polygon points="36.5558,-18.0187 30.8596,-34.0634 44.8523,-26.1150" fill="#F7F2E8" stroke="#443a34" stroke-width=".18" stroke-linejoin="round"/><polygon points="32.2449,-14.9990 36.5283,-1.0857 39.0627,-16.7404" fill="#335FC7" stroke="#443a34" stroke-width=".18" stroke-linejoin="round"/><polygon points="32.2409,-14.9953 39.0627,-16.7404 36.5278,-1.0852" fill="#F7F2E8" stroke="#443a34" stroke-width=".18" stroke-linejoin="round"/><polygon points="36.5558,-18.0187 45.4738,-21.2297 44.8523,-26.1150" fill="#335FC7" stroke="#443a34" stroke-width=".18" stroke-linejoin="round"/><polygon points="36.5558,-18.0187 44.8523,-26.1150 45.4738,-21.2297" fill="#F7F2E8" stroke="#443a34" stroke-width=".18" stroke-linejoin="round"/><polygon points="32.2449,-14.9990 37.2872,-20.8165 23.2777,-28.7444" fill="#335FC7" stroke="#443a34" stroke-width=".18" stroke-linejoin="round"/><polygon points="32.2409,-14.9953 23.2777,-28.7444 37.2872,-20.8165" fill="#F7F2E8" stroke="#443a34" stroke-width=".18" stroke-linejoin="round"/><polygon points="32.2449,-14.9990 39.0627,-16.7404 37.2872,-20.8165" fill="#335FC7" stroke="#443a34" stroke-width=".18" stroke-linejoin="round"/><polygon points="32.2409,-14.9953 37.2872,-20.8165 39.0627,-16.7404" fill="#F7F2E8" stroke="#443a34" stroke-width=".18" stroke-linejoin="round"/><polygon points="23.2777,-28.7444 -4.6428,-8.7239 9.2682,-36.6723" fill="#F7F2E8" stroke="#443a34" stroke-width=".18" stroke-linejoin="round"/><polygon points="9.2682,-36.6723 -4.6428,-8.7239 23.2777,-28.7444" fill="#335FC7" stroke="#443a34" stroke-width=".18" stroke-linejoin="round"/><polygon points="37.2872,-20.8165 -4.6428,-8.7239 23.2777,-28.7444" fill="#F7F2E8" stroke="#443a34" stroke-width=".18" stroke-linejoin="round"/><polygon points="23.2777,-28.7444 -4.6428,-8.7239 37.2872,-20.8165" fill="#335FC7" stroke="#443a34" stroke-width=".18" stroke-linejoin="round"/></svg>
